<svg width="50" height="50" viewBox="0 0 50 50" fill="none" xmlns="http://www.w3.org/2000/svg">
<g clip-path="url(#clip0_145_123)">
<path d="M18.75 0C17.9212 0 17.1263 0.32924 16.5403 0.915291C15.9542 1.50134 15.625 2.2962 15.625 3.125V6.25C14.7962 6.25 14.0013 6.57924 13.4153 7.16529C12.8292 7.75134 12.5 8.5462 12.5 9.375V21.875H3.125C2.2962 21.875 1.50134 22.2042 0.915291 22.7903C0.32924 23.3763 0 24.1712 0 25L0 46.875C0 47.7038 0.32924 48.4987 0.915291 49.0847C1.50134 49.6708 2.2962 50 3.125 50H21.875V42.1875C21.875 41.7731 22.0396 41.3757 22.3326 41.0826C22.6257 40.7896 23.0231 40.625 23.4375 40.625H26.5625C26.9769 40.625 27.3743 40.7896 27.6674 41.0826C27.9604 41.3757 28.125 41.7731 28.125 42.1875V50H46.875C47.7038 50 48.4987 49.6708 49.0847 49.0847C49.6708 48.4987 50 47.7038 50 46.875V25C50 24.1712 49.6708 23.3763 49.0847 22.7903C48.4987 22.2042 47.7038 21.875 46.875 21.875H37.5V9.375C37.5 8.5462 37.1708 7.75134 36.5847 7.16529C35.9987 6.57924 35.2038 6.25 34.375 6.25V3.125C34.375 2.2962 34.0458 1.50134 33.4597 0.915291C32.8737 0.32924 32.0788 0 31.25 0L18.75 0ZM26.5625 15.7312V19.1687L29.5406 17.45L31.1031 20.1594L28.125 21.875L31.1031 23.5938L29.5406 26.3L26.5625 24.5813V28.0187H23.4375V24.5813L20.4594 26.3L18.8969 23.5938L21.875 21.875L18.8969 20.1562L20.4594 17.45L23.4375 19.1687V15.7312H26.5625ZM7.03125 28.125H8.59375C8.80095 28.125 8.99966 28.2073 9.14618 28.3538C9.29269 28.5003 9.375 28.699 9.375 28.9062V30.4688C9.375 30.676 9.29269 30.8747 9.14618 31.0212C8.99966 31.1677 8.80095 31.25 8.59375 31.25H7.03125C6.82405 31.25 6.62534 31.1677 6.47882 31.0212C6.33231 30.8747 6.25 30.676 6.25 30.4688V28.9062C6.25 28.699 6.33231 28.5003 6.47882 28.3538C6.62534 28.2073 6.82405 28.125 7.03125 28.125ZM7.03125 34.375H8.59375C8.80095 34.375 8.99966 34.4573 9.14618 34.6038C9.29269 34.7503 9.375 34.9491 9.375 35.1562V36.7188C9.375 36.9259 9.29269 37.1247 9.14618 37.2712C8.99966 37.4177 8.80095 37.5 8.59375 37.5H7.03125C6.82405 37.5 6.62534 37.4177 6.47882 37.2712C6.33231 37.1247 6.25 36.9259 6.25 36.7188V35.1562C6.25 34.9491 6.33231 34.7503 6.47882 34.6038C6.62534 34.4573 6.82405 34.375 7.03125 34.375ZM6.25 41.4062C6.25 41.1991 6.33231 41.0003 6.47882 40.8538C6.62534 40.7073 6.82405 40.625 7.03125 40.625H8.59375C8.80095 40.625 8.99966 40.7073 9.14618 40.8538C9.29269 41.0003 9.375 41.1991 9.375 41.4062V42.9688C9.375 43.1759 9.29269 43.3747 9.14618 43.5212C8.99966 43.6677 8.80095 43.75 8.59375 43.75H7.03125C6.82405 43.75 6.62534 43.6677 6.47882 43.5212C6.33231 43.3747 6.25 43.1759 6.25 42.9688V41.4062ZM41.4062 28.125H42.9688C43.1759 28.125 43.3747 28.2073 43.5212 28.3538C43.6677 28.5003 43.75 28.699 43.75 28.9062V30.4688C43.75 30.676 43.6677 30.8747 43.5212 31.0212C43.3747 31.1677 43.1759 31.25 42.9688 31.25H41.4062C41.1991 31.25 41.0003 31.1677 40.8538 31.0212C40.7073 30.8747 40.625 30.676 40.625 30.4688V28.9062C40.625 28.699 40.7073 28.5003 40.8538 28.3538C41.0003 28.2073 41.1991 28.125 41.4062 28.125ZM40.625 35.1562C40.625 34.9491 40.7073 34.7503 40.8538 34.6038C41.0003 34.4573 41.1991 34.375 41.4062 34.375H42.9688C43.1759 34.375 43.3747 34.4573 43.5212 34.6038C43.6677 34.7503 43.75 34.9491 43.75 35.1562V36.7188C43.75 36.9259 43.6677 37.1247 43.5212 37.2712C43.3747 37.4177 43.1759 37.5 42.9688 37.5H41.4062C41.1991 37.5 41.0003 37.4177 40.8538 37.2712C40.7073 37.1247 40.625 36.9259 40.625 36.7188V35.1562ZM41.4062 40.625H42.9688C43.1759 40.625 43.3747 40.7073 43.5212 40.8538C43.6677 41.0003 43.75 41.1991 43.75 41.4062V42.9688C43.75 43.1759 43.6677 43.3747 43.5212 43.5212C43.3747 43.6677 43.1759 43.75 42.9688 43.75H41.4062C41.1991 43.75 41.0003 43.6677 40.8538 43.5212C40.7073 43.3747 40.625 43.1759 40.625 42.9688V41.4062C40.625 41.1991 40.7073 41.0003 40.8538 40.8538C41.0003 40.7073 41.1991 40.625 41.4062 40.625Z" fill="#007954"/>
</g>
<defs>
<clipPath id="clip0_145_123">
<rect width="50" height="50" fill="white"/>
</clipPath>
</defs>
</svg>
