<svg width="50" height="50" viewBox="0 0 50 50" fill="none" xmlns="http://www.w3.org/2000/svg">
<g clip-path="url(#clip0_145_134)">
<path d="M31.25 1.5625C31.25 1.1481 31.0854 0.750671 30.7924 0.457646C30.4993 0.16462 30.1019 0 29.6875 0L20.3125 0C19.8981 0 19.5007 0.16462 19.2076 0.457646C18.9146 0.750671 18.75 1.1481 18.75 1.5625C18.75 1.9769 18.5854 2.37433 18.2924 2.66735C17.9993 2.96038 17.6019 3.125 17.1875 3.125C16.7731 3.125 16.3757 3.28962 16.0826 3.58265C15.7896 3.87567 15.625 4.2731 15.625 4.6875V6.25C15.625 6.6644 15.7896 7.06183 16.0826 7.35485C16.3757 7.64788 16.7731 7.8125 17.1875 7.8125H32.8125C33.2269 7.8125 33.6243 7.64788 33.9174 7.35485C34.2104 7.06183 34.375 6.6644 34.375 6.25V4.6875C34.375 4.2731 34.2104 3.87567 33.9174 3.58265C33.6243 3.28962 33.2269 3.125 32.8125 3.125C32.3981 3.125 32.0007 2.96038 31.7076 2.66735C31.4146 2.37433 31.25 1.9769 31.25 1.5625Z" fill="#007954"/>
<path d="M12.7656 3.125H10.9375C9.6943 3.125 8.50201 3.61886 7.62294 4.49794C6.74386 5.37701 6.25 6.5693 6.25 7.8125V45.3125C6.25 46.5557 6.74386 47.748 7.62294 48.6271C8.50201 49.5061 9.6943 50 10.9375 50H39.0625C40.3057 50 41.498 49.5061 42.3771 48.6271C43.2561 47.748 43.75 46.5557 43.75 45.3125V7.8125C43.75 6.5693 43.2561 5.37701 42.3771 4.49794C41.498 3.61886 40.3057 3.125 39.0625 3.125H37.2344C37.4094 3.61667 37.4979 4.1375 37.5 4.6875V6.25C37.5 7.4932 37.0061 8.68549 36.1271 9.56456C35.248 10.4436 34.0557 10.9375 32.8125 10.9375H17.1875C15.9443 10.9375 14.752 10.4436 13.8729 9.56456C12.9939 8.68549 12.5 7.4932 12.5 6.25V4.6875C12.5021 4.1375 12.5906 3.61667 12.7656 3.125ZM33.9188 24.5438L24.5438 33.9188C24.3986 34.0643 24.2262 34.1797 24.0364 34.2585C23.8465 34.3372 23.643 34.3778 23.4375 34.3778C23.232 34.3778 23.0285 34.3372 22.8386 34.2585C22.6488 34.1797 22.4764 34.0643 22.3312 33.9188L17.6437 29.2313C17.4985 29.086 17.3832 28.9135 17.3046 28.7237C17.226 28.5339 17.1855 28.3305 17.1855 28.125C17.1855 27.9195 17.226 27.7161 17.3046 27.5263C17.3832 27.3365 17.4985 27.164 17.6437 27.0187C17.9371 26.7254 18.3351 26.5605 18.75 26.5605C18.9555 26.5605 19.1589 26.601 19.3487 26.6796C19.5385 26.7582 19.711 26.8735 19.8563 27.0187L23.4375 30.6031L31.7062 22.3312C31.9996 22.0379 32.3976 21.873 32.8125 21.873C33.2274 21.873 33.6254 22.0379 33.9188 22.3312C34.2121 22.6246 34.377 23.0226 34.377 23.4375C34.377 23.8524 34.2121 24.2504 33.9188 24.5438Z" fill="#007954"/>
</g>
<defs>
<clipPath id="clip0_145_134">
<rect width="50" height="50" fill="white"/>
</clipPath>
</defs>
</svg>
