<svg width="50" height="50" viewBox="0 0 50 50" fill="none" xmlns="http://www.w3.org/2000/svg">
<path d="M34.375 6.25C34.375 5.4212 34.7042 4.62634 35.2903 4.04029C35.8763 3.45424 36.6712 3.125 37.5 3.125H43.75C44.5788 3.125 45.3737 3.45424 45.9597 4.04029C46.5458 4.62634 46.875 5.4212 46.875 6.25V43.75H48.4375C48.8519 43.75 49.2493 43.9146 49.5424 44.2076C49.8354 44.5007 50 44.8981 50 45.3125C50 45.7269 49.8354 46.1243 49.5424 46.4174C49.2493 46.7104 48.8519 46.875 48.4375 46.875H1.5625C1.1481 46.875 0.750671 46.7104 0.457646 46.4174C0.16462 46.1243 0 45.7269 0 45.3125C0 44.8981 0.16462 44.5007 0.457646 44.2076C0.750671 43.9146 1.1481 43.75 1.5625 43.75H3.125V34.375C3.125 33.5462 3.45424 32.7513 4.04029 32.1653C4.62634 31.5792 5.4212 31.25 6.25 31.25H12.5C13.3288 31.25 14.1237 31.5792 14.7097 32.1653C15.2958 32.7513 15.625 33.5462 15.625 34.375V43.75H18.75V21.875C18.75 21.0462 19.0792 20.2513 19.6653 19.6653C20.2513 19.0792 21.0462 18.75 21.875 18.75H28.125C28.9538 18.75 29.7487 19.0792 30.3347 19.6653C30.9208 20.2513 31.25 21.0462 31.25 21.875V43.75H34.375V6.25Z" fill="#007954"/>
</svg>
