<svg width="50" height="50" viewBox="0 0 50 50" fill="none" xmlns="http://www.w3.org/2000/svg">
<path d="M39.0625 50C41.9633 50 44.7453 48.8477 46.7965 46.7965C48.8477 44.7453 50 41.9633 50 39.0625C50 36.1617 48.8477 33.3797 46.7965 31.3285C44.7453 29.2773 41.9633 28.125 39.0625 28.125C36.1617 28.125 33.3797 29.2773 31.3285 31.3285C29.2773 33.3797 28.125 36.1617 28.125 39.0625C28.125 41.9633 29.2773 44.7453 31.3285 46.7965C33.3797 48.8477 36.1617 50 39.0625 50ZM40.625 34.375V37.5H43.75C44.1644 37.5 44.5618 37.6646 44.8549 37.9576C45.1479 38.2507 45.3125 38.6481 45.3125 39.0625C45.3125 39.4769 45.1479 39.8743 44.8549 40.1674C44.5618 40.4604 44.1644 40.625 43.75 40.625H40.625V43.75C40.625 44.1644 40.4604 44.5618 40.1674 44.8549C39.8743 45.1479 39.4769 45.3125 39.0625 45.3125C38.6481 45.3125 38.2507 45.1479 37.9576 44.8549C37.6646 44.5618 37.5 44.1644 37.5 43.75V40.625H34.375C33.9606 40.625 33.5632 40.4604 33.2701 40.1674C32.9771 39.8743 32.8125 39.4769 32.8125 39.0625C32.8125 38.6481 32.9771 38.2507 33.2701 37.9576C33.5632 37.6646 33.9606 37.5 34.375 37.5H37.5V34.375C37.5 33.9606 37.6646 33.5632 37.9576 33.2701C38.2507 32.9771 38.6481 32.8125 39.0625 32.8125C39.4769 32.8125 39.8743 32.9771 40.1674 33.2701C40.4604 33.5632 40.625 33.9606 40.625 34.375ZM34.375 15.625C34.375 18.1114 33.3873 20.496 31.6291 22.2541C29.871 24.0123 27.4864 25 25 25C22.5136 25 20.129 24.0123 18.3709 22.2541C16.6127 20.496 15.625 18.1114 15.625 15.625C15.625 13.1386 16.6127 10.754 18.3709 8.99587C20.129 7.23772 22.5136 6.25 25 6.25C27.4864 6.25 29.871 7.23772 31.6291 8.99587C33.3873 10.754 34.375 13.1386 34.375 15.625Z" fill="#007954"/>
<path d="M6.25 40.625C6.25 43.75 9.375 43.75 9.375 43.75H25.8C25.2692 42.2442 24.9986 40.6591 25 39.0625C25 37.053 25.4306 35.0668 26.2629 33.2378C27.0952 31.4088 28.3099 29.7794 29.825 28.4594C28.3667 28.2406 26.7583 28.1292 25 28.125C9.375 28.125 6.25 37.5 6.25 40.625Z" fill="#007954"/>
</svg>
