<svg width="50" height="50" viewBox="0 0 50 50" fill="none" xmlns="http://www.w3.org/2000/svg">
<g clip-path="url(#clip0_147_141)">
<path d="M15.625 25C17.2826 25 18.8723 24.3415 20.0444 23.1694C21.2165 21.9973 21.875 20.4076 21.875 18.75C21.875 17.0924 21.2165 15.5027 20.0444 14.3306C18.8723 13.1585 17.2826 12.5 15.625 12.5C13.9674 12.5 12.3777 13.1585 11.2056 14.3306C10.0335 15.5027 9.375 17.0924 9.375 18.75C9.375 20.4076 10.0335 21.9973 11.2056 23.1694C12.3777 24.3415 13.9674 25 15.625 25ZM28.125 17.1875C28.125 16.7731 28.2896 16.3757 28.5826 16.0826C28.8757 15.7896 29.2731 15.625 29.6875 15.625H42.1875C42.6019 15.625 42.9993 15.7896 43.2924 16.0826C43.5854 16.3757 43.75 16.7731 43.75 17.1875C43.75 17.6019 43.5854 17.9993 43.2924 18.2924C42.9993 18.5854 42.6019 18.75 42.1875 18.75H29.6875C29.2731 18.75 28.8757 18.5854 28.5826 18.2924C28.2896 17.9993 28.125 17.6019 28.125 17.1875ZM28.125 25C28.125 24.5856 28.2896 24.1882 28.5826 23.8951C28.8757 23.6021 29.2731 23.4375 29.6875 23.4375H42.1875C42.6019 23.4375 42.9993 23.6021 43.2924 23.8951C43.5854 24.1882 43.75 24.5856 43.75 25C43.75 25.4144 43.5854 25.8118 43.2924 26.1049C42.9993 26.3979 42.6019 26.5625 42.1875 26.5625H29.6875C29.2731 26.5625 28.8757 26.3979 28.5826 26.1049C28.2896 25.8118 28.125 25.4144 28.125 25ZM31.25 32.8125C31.25 32.3981 31.4146 32.0007 31.7076 31.7076C32.0007 31.4146 32.3981 31.25 32.8125 31.25H42.1875C42.6019 31.25 42.9993 31.4146 43.2924 31.7076C43.5854 32.0007 43.75 32.3981 43.75 32.8125C43.75 33.2269 43.5854 33.6243 43.2924 33.9174C42.9993 34.2104 42.6019 34.375 42.1875 34.375H32.8125C32.3981 34.375 32.0007 34.2104 31.7076 33.9174C31.4146 33.6243 31.25 33.2269 31.25 32.8125Z" fill="#007954"/>
<path d="M6.25 6.25C4.5924 6.25 3.00269 6.90848 1.83058 8.08058C0.65848 9.25268 0 10.8424 0 12.5L0 37.5C0 39.1576 0.65848 40.7473 1.83058 41.9194C3.00269 43.0915 4.5924 43.75 6.25 43.75H43.75C45.4076 43.75 46.9973 43.0915 48.1694 41.9194C49.3415 40.7473 50 39.1576 50 37.5V12.5C50 10.8424 49.3415 9.25268 48.1694 8.08058C46.9973 6.90848 45.4076 6.25 43.75 6.25H6.25ZM3.125 12.5C3.125 11.6712 3.45424 10.8763 4.04029 10.2903C4.62634 9.70424 5.4212 9.375 6.25 9.375H43.75C44.5788 9.375 45.3737 9.70424 45.9597 10.2903C46.5458 10.8763 46.875 11.6712 46.875 12.5V37.5C46.875 38.3288 46.5458 39.1237 45.9597 39.7097C45.3737 40.2958 44.5788 40.625 43.75 40.625H28C28.0833 40.1146 28.125 39.5938 28.125 39.0625C28.125 33.0219 22.5312 28.125 15.625 28.125C9.10625 28.125 3.75 32.4937 3.175 38.0656C3.1412 37.879 3.12447 37.6897 3.125 37.5V12.5Z" fill="#007954"/>
</g>
<defs>
<clipPath id="clip0_147_141">
<rect width="50" height="50" fill="white"/>
</clipPath>
</defs>
</svg>
