<svg width="50" height="50" viewBox="0 0 50 50" fill="none" xmlns="http://www.w3.org/2000/svg">
<g clip-path="url(#clip0_145_127)">
<path d="M31.25 1.5625C31.25 1.1481 31.0854 0.750671 30.7924 0.457646C30.4993 0.16462 30.1019 0 29.6875 0L20.3125 0C19.8981 0 19.5007 0.16462 19.2076 0.457646C18.9146 0.750671 18.75 1.1481 18.75 1.5625C18.75 1.9769 18.5854 2.37433 18.2924 2.66735C17.9993 2.96038 17.6019 3.125 17.1875 3.125C16.7731 3.125 16.3757 3.28962 16.0826 3.58265C15.7896 3.87567 15.625 4.2731 15.625 4.6875V6.25C15.625 6.6644 15.7896 7.06183 16.0826 7.35485C16.3757 7.64788 16.7731 7.8125 17.1875 7.8125H32.8125C33.2269 7.8125 33.6243 7.64788 33.9174 7.35485C34.2104 7.06183 34.375 6.6644 34.375 6.25V4.6875C34.375 4.2731 34.2104 3.87567 33.9174 3.58265C33.6243 3.28962 33.2269 3.125 32.8125 3.125C32.3981 3.125 32.0007 2.96038 31.7076 2.66735C31.4146 2.37433 31.25 1.9769 31.25 1.5625Z" fill="#007954"/>
<path d="M12.7656 3.125H10.9375C9.6943 3.125 8.50201 3.61886 7.62294 4.49794C6.74386 5.37701 6.25 6.5693 6.25 7.8125V45.3125C6.25 46.5557 6.74386 47.748 7.62294 48.6271C8.50201 49.5061 9.6943 50 10.9375 50H39.0625C40.3057 50 41.498 49.5061 42.3771 48.6271C43.2561 47.748 43.75 46.5557 43.75 45.3125V7.8125C43.75 6.5693 43.2561 5.37701 42.3771 4.49794C41.498 3.61886 40.3057 3.125 39.0625 3.125H37.2344C37.4094 3.61667 37.4979 4.1375 37.5 4.6875V6.25C37.5 7.4932 37.0061 8.68549 36.1271 9.56456C35.248 10.4436 34.0557 10.9375 32.8125 10.9375H17.1875C15.9443 10.9375 14.752 10.4436 13.8729 9.56456C12.9939 8.68549 12.5 7.4932 12.5 6.25V4.6875C12.5021 4.1375 12.5906 3.61667 12.7656 3.125ZM31.1875 16.7375L35.5375 31.25H35.9375C36.3519 31.25 36.7493 31.4146 37.0424 31.7076C37.3354 32.0007 37.5 32.3981 37.5 32.8125C37.5 33.2269 37.3354 33.6243 37.0424 33.9174C36.7493 34.2104 36.3519 34.375 35.9375 34.375H34.375C34.0391 34.3751 33.712 34.267 33.4424 34.0666C33.1727 33.8662 32.9749 33.5842 32.8781 33.2625L29.9406 23.4656L26.5281 39.3906C26.4557 39.73 26.2724 40.0355 26.0071 40.2592C25.7418 40.4828 25.4096 40.6118 25.0629 40.6258C24.7162 40.6397 24.3747 40.5379 24.0923 40.3363C23.8099 40.1348 23.6026 39.8449 23.5031 39.5125L19.9469 27.6563L17.0219 33.5094C16.8924 33.7692 16.6932 33.9878 16.4464 34.1407C16.1997 34.2936 15.9153 34.3747 15.625 34.375H14.0625C13.6481 34.375 13.2507 34.2104 12.9576 33.9174C12.6646 33.6243 12.5 33.2269 12.5 32.8125C12.5 32.3981 12.6646 32.0007 12.9576 31.7076C13.2507 31.4146 13.6481 31.25 14.0625 31.25H14.6594L18.9156 22.7375C19.0557 22.4576 19.2766 22.2263 19.5497 22.0734C19.8228 21.9205 20.1356 21.8532 20.4474 21.8801C20.7592 21.9071 21.0557 22.027 21.2986 22.2245C21.5414 22.4219 21.7194 22.6877 21.8094 22.9875L24.7469 32.7844L28.1594 16.8594C28.2318 16.52 28.4151 16.2145 28.6804 15.9908C28.9457 15.7672 29.2779 15.6382 29.6246 15.6242C29.9713 15.6103 30.3127 15.7121 30.5952 15.9137C30.8776 16.1152 31.088 16.4051 31.1875 16.7375Z" fill="#007954"/>
</g>
<defs>
<clipPath id="clip0_145_127">
<rect width="50" height="50" fill="white"/>
</clipPath>
</defs>
</svg>
