<svg width="128" height="54" viewBox="0 0 128 54" fill="none" xmlns="http://www.w3.org/2000/svg">
<path d="M1.0293 13.6313V12.3296C1.0293 8.62614 1.95768 5.91162 3.81445 4.18604C5.67122 2.45036 8.13346 1.58252 11.2012 1.58252C14.0469 1.58252 16.3022 2.26872 17.9673 3.64111C19.6424 5.00342 20.48 6.95101 20.48 9.48389V10.5586H14.062V9.10547C14.062 8.12663 13.8249 7.40007 13.3506 6.92578C12.8763 6.4515 12.1649 6.21436 11.2163 6.21436C10.1971 6.21436 9.39486 6.55745 8.80957 7.24365C8.23438 7.91976 7.94678 9.11051 7.94678 10.8159V15.145C7.94678 16.7899 8.22933 17.9806 8.79443 18.7173C9.35954 19.4438 10.187 19.8071 11.2769 19.8071C12.2153 19.8071 12.9116 19.5397 13.3657 19.0049C13.8198 18.4701 14.0519 17.6678 14.062 16.5981V15.4629H20.48V16.7041C20.4598 19.0654 19.6172 20.9373 17.9521 22.3198C16.2972 23.6922 14.0418 24.3784 11.186 24.3784C8.08805 24.3784 5.62077 23.5005 3.78418 21.7446C1.94759 19.9787 1.0293 17.2743 1.0293 13.6313ZM22.9388 13.6313V12.3296C22.9388 8.68669 23.8874 5.98226 25.7845 4.21631C27.6816 2.45036 30.1136 1.56738 33.0804 1.56738C36.0472 1.56738 38.4842 2.45036 40.3914 4.21631C42.3087 5.98226 43.2674 8.68669 43.2674 12.3296V13.6313C43.2674 17.2743 42.3087 19.9787 40.3914 21.7446C38.4842 23.5106 36.0472 24.3936 33.0804 24.3936C30.1136 24.3936 27.6816 23.5106 25.7845 21.7446C23.8874 19.9787 22.9388 17.2743 22.9388 13.6313ZM29.7654 15.0693C29.7654 16.7848 30.0581 18.0059 30.6434 18.7324C31.2287 19.4489 32.041 19.8071 33.0804 19.8071C34.1299 19.8071 34.9523 19.4489 35.5477 18.7324C36.1531 18.0059 36.4559 16.7848 36.4559 15.0693V10.9219C36.4559 9.21647 36.1531 8.00553 35.5477 7.28906C34.9523 6.57259 34.1299 6.21436 33.0804 6.21436C32.041 6.21436 31.2287 6.57259 30.6434 7.28906C30.0581 8.00553 29.7654 9.21647 29.7654 10.9219V15.0693ZM46.922 24V1.96094H53.7033L58.8952 12.814C59.0364 13.1369 59.1575 13.4548 59.2584 13.7676C59.3694 14.0804 59.4704 14.4084 59.5612 14.7515H59.6671C59.6469 14.3983 59.6369 14.0703 59.6369 13.7676C59.6369 13.4648 59.6369 13.1369 59.6369 12.7837V1.96094H65.1163V24H58.3048L53.0978 13.2075C52.9565 12.8947 52.8354 12.5869 52.7345 12.2842C52.6336 11.9714 52.5377 11.6434 52.4469 11.3003H52.341C52.3611 11.6535 52.3712 11.9814 52.3712 12.2842C52.3813 12.5869 52.3864 12.9199 52.3864 13.2832V24H46.922ZM68.3925 17.7939V16.9312H74.7348V17.4458C74.7348 18.2733 74.972 18.8939 75.4463 19.3076C75.9306 19.7113 76.6017 19.9131 77.4594 19.9131C78.2768 19.9131 78.9075 19.7466 79.3515 19.4136C79.8056 19.0806 80.0327 18.6214 80.0327 18.0361C80.0327 17.3903 79.8107 16.9009 79.3667 16.5679C78.9227 16.2349 77.7571 15.8161 75.8701 15.3115C73.5794 14.696 71.7983 13.8483 70.5268 12.7686C69.2553 11.6888 68.6196 10.2054 68.6196 8.31836C68.6196 6.18913 69.4168 4.53418 71.0112 3.35352C72.6056 2.17285 74.6995 1.58252 77.2929 1.58252C79.8864 1.58252 81.9803 2.15267 83.5747 3.29297C85.1792 4.42318 85.9814 5.9974 85.9814 8.01562V8.75732H79.7754V8.3335C79.7754 7.66748 79.5685 7.1377 79.1547 6.74414C78.7511 6.34049 78.1557 6.13867 77.3686 6.13867C76.5714 6.13867 75.9861 6.29004 75.6128 6.59277C75.2495 6.88542 75.0678 7.27897 75.0678 7.77344C75.0678 8.28809 75.2949 8.67155 75.749 8.92383C76.2031 9.17611 77.409 9.56462 79.3667 10.0894C81.5463 10.6746 83.2719 11.5173 84.5434 12.6172C85.8149 13.707 86.4557 15.2964 86.4658 17.3853C86.4658 19.6659 85.6383 21.4066 83.9834 22.6074C82.3284 23.7982 80.1689 24.3936 77.5048 24.3936C74.8711 24.3936 72.6914 23.8436 70.9658 22.7437C69.2503 21.6437 68.3925 19.9938 68.3925 17.7939ZM89.5301 15.4023V1.96094H96.0843V16.144C96.0843 17.5669 96.3164 18.5306 96.7805 19.0352C97.2447 19.5397 97.8805 19.792 98.6878 19.792C99.485 19.792 100.116 19.5397 100.58 19.0352C101.044 18.5306 101.276 17.5669 101.276 16.144V1.96094H107.74V15.4023C107.74 18.5306 106.902 20.8112 105.227 22.2441C103.552 23.6771 101.377 24.3936 98.7029 24.3936C95.9581 24.3936 93.7431 23.6771 92.0579 22.2441C90.3727 20.8112 89.5301 18.5306 89.5301 15.4023ZM111.863 24V1.96094H118.433V19.02H126.985V24H111.863ZM1.68018 51V28.9609H10.4746L14.1831 40.2681C14.2941 40.6313 14.3849 40.9644 14.4556 41.2671C14.5363 41.5597 14.6069 41.9079 14.6675 42.3115H14.7432C14.8037 41.9079 14.8743 41.5547 14.9551 41.252C15.0358 40.9492 15.1317 40.6213 15.2427 40.2681L18.9512 28.9609H27.8516V51H21.3276V39.2993C21.3276 38.9461 21.3327 38.5576 21.3428 38.1338C21.363 37.71 21.3882 37.3215 21.4185 36.9683H21.3125C21.262 37.3215 21.1914 37.71 21.1006 38.1338C21.0199 38.5576 20.929 38.9461 20.8281 39.2993L17.1045 51H11.5342L7.84082 39.2993C7.73991 38.9461 7.64404 38.5526 7.55322 38.1187C7.47249 37.6847 7.4069 37.3013 7.35645 36.9683H7.25049C7.27067 37.3013 7.28581 37.6847 7.2959 38.1187C7.31608 38.5526 7.32617 38.9461 7.32617 39.2993V51H1.68018ZM32.1268 51V28.9609H47.9295V33.9409H38.5296V37.498H46.6126V42.0845H38.5296V46.126H48.1414V51H32.1268ZM51.4328 51V28.9609H60.0153C63.0224 28.9609 65.4746 29.859 67.3717 31.6553C69.2689 33.4414 70.2174 35.9894 70.2174 39.2993V40.6011C70.2174 43.911 69.2638 46.4741 67.3566 48.2905C65.4594 50.0968 63.0123 51 60.0153 51H51.4328ZM57.881 46.4438H59.5914C60.7721 46.4438 61.7257 46.0251 62.4523 45.1875C63.1788 44.3499 63.5421 43.0179 63.5421 41.1914V38.7847C63.5421 36.9481 63.1788 35.6312 62.4523 34.834C61.7257 34.0368 60.7721 33.6382 59.5914 33.6382H57.881V46.4438Z" fill="white"/>
<ellipse cx="60" cy="40" rx="4" ry="8" fill="white"/>
<path d="M65.8487 37.4787C65.6941 37.0222 65.5263 36.7296 65.1441 36.4019C65.1441 36.4019 64.8993 36.1259 64.5676 35.8824C64.1058 35.5401 63.4224 35.416 62.7835 35.4067H62.7371C61.7512 35.4067 60.8548 35.8678 60.3347 36.307C60.123 36.096 59.4569 35.4857 58.5599 35.1838C58.1944 35.0617 57.8222 35 57.4533 35C57.0486 35 56.6458 35.075 56.2571 35.2229C55.6526 35.4525 55.1497 35.7789 54.8386 36.1431C54.5234 36.5253 54.3622 36.8909 54.203 37.3559C53.9004 38.2383 53.9356 39.0823 54.3118 40.0045C54.4033 40.2301 54.5287 40.4722 54.6813 40.7263L54.6946 40.7495C54.7059 40.7675 54.7158 40.786 54.7278 40.8053H54.7304L54.883 41.0435H54.8797C54.8956 41.068 54.9109 41.0899 54.9275 41.1144C54.9308 41.1198 54.9354 41.1251 54.9388 41.1297L54.9434 41.1363C55.0841 41.3427 55.2413 41.5576 55.4171 41.7779C55.6526 42.0785 55.9505 42.3763 56.2391 42.6656C56.3552 42.7824 56.4694 42.8965 56.5788 43.0093C57.292 43.7517 58.1088 44.4842 58.82 45.0216C59.1809 45.2936 59.6818 45.6412 60.0149 45.7474L60.0507 45.758L60.0859 45.7441C60.137 45.7248 60.194 45.6963 60.2564 45.6638C60.6591 45.4502 61.2529 45.0109 61.9283 44.4278C62.4259 43.9965 62.9341 43.5168 63.3959 43.0372C63.512 42.9164 63.6334 42.7963 63.7568 42.6742C64.0421 42.389 64.338 42.0937 64.5715 41.8031C64.7606 41.5683 64.9278 41.346 65.0744 41.1317L65.0771 41.137L65.3418 40.7263L65.3345 40.7277C65.5024 40.4517 65.6298 40.1949 65.7114 39.9633C66.0431 39.0299 66.0889 38.1946 65.8487 37.4787ZM63.0668 41.3201C63.0668 41.3679 63.0277 41.4057 62.9819 41.4057H61.1023V43.2846C61.1023 43.3311 61.0645 43.3689 61.018 43.3689H59.5199C59.4728 43.3689 59.435 43.3311 59.435 43.2846V41.4057H57.5554C57.509 41.4057 57.4712 41.3679 57.4712 41.3201V39.822C57.4712 39.7756 57.509 39.7378 57.5554 39.7378H59.435V37.8575C59.435 37.8111 59.4728 37.7719 59.5199 37.7719H61.018C61.0645 37.7719 61.1023 37.8111 61.1023 37.8575V39.7378H62.9819C63.0283 39.7378 63.0668 39.7756 63.0668 39.822V41.3201Z" fill="#00815A"/>
</svg>
